<svg xmlns="http://www.w3.org/2000/svg" width="92.435" height="66.137" viewBox="0 0 92.435 66.137">
  <g id="children" transform="translate(0 -72.832)">
    <g id="Group_93" data-name="Group 93" transform="translate(0 72.832)">
      <path id="Path_84" data-name="Path 84" d="M50.911,80.35l-3.173-5.5a4.03,4.03,0,0,0-5.6-1.426,18.576,18.576,0,0,0-7.313,8.4,21.915,21.915,0,0,0-18.191,0A18.577,18.577,0,0,0,9.32,73.427a4.03,4.03,0,0,0-5.6,1.426l-3.173,5.5a4.029,4.029,0,0,0-.2,3.666,3.977,3.977,0,0,0,2.795,2.309,15.8,15.8,0,0,1,5.153,2.185,21.825,21.825,0,0,0-3.255,6.13,3.249,3.249,0,0,0,.279,2.676,20.837,20.837,0,0,0,11.162,23.1,11.878,11.878,0,0,0-2.529,7.339,2.957,2.957,0,0,0,1.822,2.721,3.119,3.119,0,0,0,2.71,3.363v.832A4.3,4.3,0,0,0,25.73,137.8a4.3,4.3,0,0,0,7.246-3.128v-.832a3.119,3.119,0,0,0,2.71-3.363,2.948,2.948,0,0,0,1.822-2.721,11.867,11.867,0,0,0-2.528-7.337,20.715,20.715,0,0,0,2.372-1.374A1.354,1.354,0,1,0,35.84,116.8,18.171,18.171,0,0,1,7.87,98.365h6.717a28.051,28.051,0,0,0,19-7.34l5.188,5.188a7.294,7.294,0,0,0,4.809,2.142,18.084,18.084,0,0,1-4,15.087,1.354,1.354,0,1,0,2.066,1.75,20.8,20.8,0,0,0,4.488-17.874,3.249,3.249,0,0,0,.281-2.681,21.852,21.852,0,0,0-3.257-6.126,15.8,15.8,0,0,1,5.155-2.187,4.044,4.044,0,0,0,2.594-5.975ZM24.376,134.67a1.592,1.592,0,0,1-3.184,0v-.806h3.184Zm5.892,0a1.592,1.592,0,0,1-3.184,0v-.806h3.184Zm-13.376-8.977h0a9.13,9.13,0,0,1,2.218-4.193,20.963,20.963,0,0,0,13.238,0,9.124,9.124,0,0,1,2.219,4.19,9.266,9.266,0,0,1,.231,2.061.236.236,0,0,1-.236.236h-.071l-1.415-2.123a1.354,1.354,0,1,0-2.253,1.5l2.1,3.144a.413.413,0,0,1-.344.643H18.883a.413.413,0,0,1-.344-.643l2.1-3.144a1.354,1.354,0,0,0-2.253-1.5L16.9,127.989a.236.236,0,0,1-.236-.236,9.6,9.6,0,0,1,.231-2.06ZM3.736,83.681A1.338,1.338,0,0,1,2.894,81.7l3.173-5.5a1.324,1.324,0,0,1,1.838-.47,15.859,15.859,0,0,1,6.33,7.381,21.7,21.7,0,0,0-4.161,3.325,18.533,18.533,0,0,0-6.338-2.761ZM43.883,95.657A4.607,4.607,0,0,1,40.689,94.3l-6.123-6.123a1.354,1.354,0,0,0-1.915,0,25.378,25.378,0,0,1-18.064,7.482H7.577a.492.492,0,0,1,.026-.145A19.184,19.184,0,0,1,34.9,84.9a1.226,1.226,0,0,1,.739,1,1.354,1.354,0,0,0,1.347,1.213c.719,0,1.094-.048,1.477.292A18.821,18.821,0,0,1,43.883,95.657Zm-2.5-9.211c-1.116-1.144-1.854-1.89-3.366-2.025a3.856,3.856,0,0,0-.841-1.186,15.858,15.858,0,0,1,6.378-7.5,1.324,1.324,0,0,1,1.838.47l3.173,5.5a1.338,1.338,0,0,1-.842,1.979A18.537,18.537,0,0,0,41.383,86.445Z" transform="translate(0 -72.832)" fill="#5fb2e4"/>
      <path id="Path_85" data-name="Path 85" d="M92.5,239.553v1.485a1.354,1.354,0,1,0,2.708,0v-1.485a1.354,1.354,0,1,0-2.708,0Z" transform="translate(-75.804 -208.344)" fill="#5fb2e4"/>
      <path id="Path_86" data-name="Path 86" d="M178.135,239.553v1.485a1.354,1.354,0,1,0,2.708,0v-1.485a1.354,1.354,0,1,0-2.708,0Z" transform="translate(-145.975 -208.344)" fill="#5fb2e4"/>
      <path id="Path_87" data-name="Path 87" d="M128.44,246.646a1.347,1.347,0,0,1-2.034,0,1.354,1.354,0,0,0-2.042,1.779,4.055,4.055,0,0,0,6.117,0,1.354,1.354,0,1,0-2.041-1.779Z" transform="translate(-101.639 -214.886)" fill="#5fb2e4"/>
      <path id="Path_88" data-name="Path 88" d="M343.44,244.066v1.511a1.354,1.354,0,0,0,2.708,0v-1.511a1.354,1.354,0,0,0-2.708,0Z" transform="translate(-281.436 -212.042)" fill="#5fb2e4"/>
      <path id="Path_89" data-name="Path 89" d="M430.56,244.066v1.511a1.354,1.354,0,0,0,2.708,0v-1.511a1.354,1.354,0,0,0-2.708,0Z" transform="translate(-352.828 -212.042)" fill="#5fb2e4"/>
      <path id="Path_90" data-name="Path 90" d="M380,251.3a1.394,1.394,0,0,1-2.105,0,1.354,1.354,0,0,0-2.042,1.779,4.1,4.1,0,0,0,6.188,0A1.354,1.354,0,0,0,380,251.3Z" transform="translate(-307.721 -218.696)" fill="#5fb2e4"/>
      <path id="Path_91" data-name="Path 91" d="M316.39,122.97a23.447,23.447,0,0,0,1.9-4.665,3.132,3.132,0,0,0-4.725-3.49,25.039,25.039,0,0,1-3.144,1.745,21.009,21.009,0,0,0-12.208-3.864A21.212,21.212,0,0,0,289.4,153.2a11.994,11.994,0,0,0-2.152,3.305,12.225,12.225,0,0,0-.992,5.36,4.356,4.356,0,0,0,4.351,4.351h.06v.968a4.448,4.448,0,0,0,7.547,3.194,4.448,4.448,0,0,0,7.547-3.194v-.968h.062a4.356,4.356,0,0,0,4.351-4.351,12.227,12.227,0,0,0-.992-5.36,12,12,0,0,0-2.148-3.3,21.164,21.164,0,0,0,2.748-1.512,1.354,1.354,0,1,0-1.479-2.269,18.507,18.507,0,0,1-28.543-14.161l16.619,0h.025a22.974,22.974,0,0,0,11.694-3.431,16.537,16.537,0,0,0,8.573,3.371,18.472,18.472,0,0,1-4.562,10.933,1.354,1.354,0,0,0,2.033,1.79,21.218,21.218,0,0,0,2.251-24.952Zm-25.725,38.9v1.643h-.06a1.645,1.645,0,0,1-1.643-1.643,11.7,11.7,0,0,1,.206-2.533c.485.359.986.705,1.5,1.031Zm12.386,5.319a1.742,1.742,0,1,1-3.485,0V165.9a1.354,1.354,0,1,0-2.708,0v1.287a1.742,1.742,0,1,1-3.485,0v-3.965h9.678Zm4.211-7.856a12.288,12.288,0,0,1,.2,2.537,1.645,1.645,0,0,1-1.643,1.643h-.061v-3.145C306.273,160.039,306.776,159.691,307.262,159.331ZM292.2,154.254a21.265,21.265,0,0,0,12.03,0,9.324,9.324,0,0,1,2.016,2.443,23.164,23.164,0,0,1-2.532,1.747,1.354,1.354,0,0,0-.661,1.163v.9h-9.678v-.9a1.354,1.354,0,0,0-.661-1.163,23.16,23.16,0,0,1-2.531-1.747A9.329,9.329,0,0,1,292.2,154.254Zm4.163-21.7-16.605,0a18.529,18.529,0,0,1,18.455-17.151,18.335,18.335,0,0,1,11.22,3.789,1.355,1.355,0,0,0,1.385.155,27.722,27.722,0,0,0,4.229-2.267.424.424,0,0,1,.64.478,20.791,20.791,0,0,1-2.041,4.766c-.007.013-.012.026-.019.039a20.374,20.374,0,0,1-17.263,10.186Zm14.066-2.378a23.426,23.426,0,0,0,4.321-4.573,18.405,18.405,0,0,1,1.912,6.874A13.8,13.8,0,0,1,310.429,130.174Z" transform="translate(-226.991 -105.5)" fill="#5fb2e4"/>
    </g>
  </g>
</svg>
