<svg xmlns="http://www.w3.org/2000/svg" width="20" height="16" viewBox="0 0 20 16">
  <path id="mail-inbox-app" d="M15.313,70H4.688A4.726,4.726,0,0,1,0,65.248v-6.5A4.726,4.726,0,0,1,4.688,54H15.313A4.726,4.726,0,0,1,20,58.752v6.5A4.726,4.726,0,0,1,15.313,70ZM4.688,55.584a3.15,3.15,0,0,0-3.125,3.168v6.5a3.15,3.15,0,0,0,3.125,3.168H15.313a3.15,3.15,0,0,0,3.125-3.168v-6.5a3.15,3.15,0,0,0-3.125-3.168ZM12.863,63.4l3.862-2.991a.8.8,0,0,0,.147-1.11.774.774,0,0,0-1.1-.149l-3.861,2.99a3.1,3.1,0,0,1-3.788,0L4.386,59.2a.774.774,0,0,0-1.1.139.8.8,0,0,0,.137,1.111L7.171,63.4l.006,0a4.648,4.648,0,0,0,5.686,0Z" transform="translate(0 -54)" fill="#00bce4"/>
</svg>
