<svg xmlns="http://www.w3.org/2000/svg" width="26" height="22" viewBox="0 0 26 22">
  <g id="heart_1_" data-name="heart (1)" transform="translate(0 -37.984)">
    <g id="Group_12" data-name="Group 12" transform="translate(0 37.984)">
      <g id="Group_11" data-name="Group 11">
        <path id="Path_14" data-name="Path 14" d="M18.256,37.984A7.591,7.591,0,0,0,13,40.077a7.591,7.591,0,0,0-5.256-2.093A7.821,7.821,0,0,0,0,45.863c0,2.519,2.16,5.657,6.421,9.329A61.073,61.073,0,0,0,12.727,59.9a.511.511,0,0,0,.546,0,61.072,61.072,0,0,0,6.306-4.713C23.84,51.52,26,48.381,26,45.863A7.821,7.821,0,0,0,18.256,37.984Zm.666,16.438A60.59,60.59,0,0,1,13,58.877a60.537,60.537,0,0,1-5.913-4.448c-3.972-3.422-6.071-6.385-6.071-8.566a6.808,6.808,0,0,1,6.728-6.869,6.6,6.6,0,0,1,4.883,2.144.51.51,0,0,0,.746,0,6.6,6.6,0,0,1,4.883-2.144,6.807,6.807,0,0,1,6.728,6.869C24.984,48.043,22.888,51,18.922,54.422Z" transform="translate(0 -37.984)"/>
      </g>
    </g>
    <g id="Group_15" data-name="Group 15" transform="translate(17.002 40.85)">
      <g id="Group_14" data-name="Group 14">
        <g id="Group_13" data-name="Group 13">
          <path id="Path_15" data-name="Path 15" d="M339.2,93.175l-.02,0a.519.519,0,1,0,.182,1.023l.01,0a.519.519,0,0,0-.172-1.024Z" transform="translate(-338.75 -93.167)"/>
          <path id="Path_16" data-name="Path 16" d="M380.238,97.424a5,5,0,0,0-2.55-1.837.519.519,0,0,0-.3.993,4.114,4.114,0,0,1,2.819,3.95.519.519,0,1,0,1.039,0A5.241,5.241,0,0,0,380.238,97.424Z" transform="translate(-375.029 -95.44)"/>
        </g>
      </g>
    </g>
  </g>
</svg>
