<svg xmlns="http://www.w3.org/2000/svg" width="15.309" height="22.902" viewBox="0 0 15.309 22.902">
  <g id="placeholder" transform="translate(-85.847 0.15)">
    <g id="Group_61" data-name="Group 61" transform="translate(93.099 1.766)">
      <g id="Group_60" data-name="Group 60" transform="translate(0)">
        <path id="Path_37" data-name="Path 37" d="M247.345,40a.441.441,0,1,0,.438.445A.442.442,0,0,0,247.345,40Z" transform="translate(-246.9 -40.005)" fill="#00bce4" stroke="#00bce4" stroke-width="0.3"/>
      </g>
    </g>
    <g id="Group_63" data-name="Group 63" transform="translate(90.411 4.415)">
      <g id="Group_62" data-name="Group 62" transform="translate(0)">
        <path id="Path_38" data-name="Path 38" d="M189.112,100a3.09,3.09,0,0,0-.046,6.18h.024a3.09,3.09,0,0,0,.023-6.18Zm-.023,5.3h-.017a2.207,2.207,0,0,1,.016-4.415h.017a2.207,2.207,0,0,1-.016,4.415Z" transform="translate(-185.999 -100.002)" fill="#00bce4" stroke="#00bce4" stroke-width="0.3"/>
      </g>
    </g>
    <g id="Group_65" data-name="Group 65" transform="translate(94.838 2.075)">
      <g id="Group_64" data-name="Group 64" transform="translate(0)">
        <path id="Path_39" data-name="Path 39" d="M286.876,47.037a.441.441,0,1,0-.295.832,4.85,4.85,0,0,1,3.225,4.608.441.441,0,0,0,.438.445h0a.442.442,0,0,0,.441-.438A5.734,5.734,0,0,0,286.876,47.037Z" transform="translate(-286.287 -47.011)" fill="#00bce4" stroke="#00bce4" stroke-width="0.3"/>
      </g>
    </g>
    <g id="Group_67" data-name="Group 67" transform="translate(85.996)">
      <g id="Group_66" data-name="Group 66" transform="translate(0)">
        <path id="Path_40" data-name="Path 40" d="M96.21,16.618c2.936-3.779,4.771-5.75,4.8-9.057A7.5,7.5,0,1,0,86,7.448c-.025,3.4,1.844,5.364,4.8,9.169-2.941.44-4.8,1.544-4.8,2.895,0,.9.836,1.717,2.355,2.286a16.9,16.9,0,0,0,10.3,0c1.519-.57,2.355-1.381,2.355-2.286C101.005,18.162,99.148,17.058,96.21,16.618Zm-9.33-9.163a6.622,6.622,0,1,1,13.243.1c-.023,3.14-1.969,5.075-5.076,9.125-.554.722-1.063,1.4-1.545,2.072-.48-.668-.979-1.339-1.541-2.073C88.725,12.46,86.855,10.671,86.879,7.455ZM93.5,21.719c-3.79,0-6.622-1.165-6.622-2.207,0-.773,1.693-1.749,4.539-2.087.629.826,1.181,1.576,1.722,2.342a.441.441,0,0,0,.36.187h0a.441.441,0,0,0,.36-.186c.536-.756,1.1-1.525,1.726-2.342,2.844.338,4.535,1.314,4.535,2.086C100.123,20.554,97.291,21.719,93.5,21.719Z" transform="translate(-85.996)" fill="#00bce4" stroke="#00bce4" stroke-width="0.3"/>
      </g>
    </g>
  </g>
</svg>
