<svg xmlns="http://www.w3.org/2000/svg" width="112.002" height="67.243" viewBox="0 0 112.002 67.243">
  <g id="moisturizer" transform="translate(0.5 -96.386)">
    <g id="Group_86" data-name="Group 86" transform="translate(0.031 123.638)">
      <g id="Group_85" data-name="Group 85">
        <path id="Path_80" data-name="Path 80" d="M110.887,223.282a10.956,10.956,0,0,0-8.92-3.609l5.006-4.09a.925.925,0,0,0-.139-1.526,14.287,14.287,0,0,0-15.1.749.925.925,0,1,0,.976,1.572.891.891,0,0,0,.079-.055,12.427,12.427,0,0,1,11.871-1.258l-29.128,23.8a.925.925,0,0,0-.132,1.3l0,0a.925.925,0,0,0,1.3.132l0,0L98.4,222.6a9.123,9.123,0,0,1,10.326,1.11L80.381,241.88a16.2,16.2,0,0,1-5.7,2.535l-21.837,5.043a16.72,16.72,0,0,1-10.336-.925l-22.855-9.984A32.079,32.079,0,0,0,.889,236.4a.925.925,0,0,0-.741,1.079v0a.925.925,0,0,0,1.078.741h0a30.265,30.265,0,0,1,17.682,2.017L41.74,250.19a18.505,18.505,0,0,0,11.474,1.073l8.374-1.934,9.688,1.12a15.563,15.563,0,0,0,1.851.111,16.379,16.379,0,0,0,5.182-.833l28.369-9.456a.925.925,0,0,0,.49-1.36c-2.165-3.572-4.626-4.626-8.7-3.84a.943.943,0,0,0,.361,1.851c2.9-.574,4.562-.056,6.107,2.017l-27.2,9.031a14.591,14.591,0,0,1-6.246.648l-4.515-.527,8.124-1.851a18.17,18.17,0,0,0,6.32-2.776l29.258-18.811a.923.923,0,0,0,.213-1.37Z" transform="translate(-0.132 -212.253)" fill="#5fb2e4" stroke="#5fb2e4" stroke-width="1"/>
      </g>
    </g>
    <g id="Group_88" data-name="Group 88" transform="translate(0 122.622)">
      <g id="Group_87" data-name="Group 87" transform="translate(0)">
        <path id="Path_81" data-name="Path 81" d="M90.568,216.057a.925.925,0,0,0-.509-.712,22.321,22.321,0,0,0-2.434-1.036c-4.247-1.12-8.272,1.009-10.53,2.6l-17.581-6.977a27.073,27.073,0,0,0-4.626-1.406c-7.948-1.647-52.112.278-53.963.37A.925.925,0,0,0,0,209.82c0,.013,0,.025,0,.038a.925.925,0,0,0,.925.925c.463,0,45.783-2.008,53.547-.416a25.3,25.3,0,0,1,4.312,1.314l16.489,6.551-6.607,4.923-4.034-1.2a17.062,17.062,0,0,0-11.215.379l-.1.046-3.35,1.369-2.591-1.684a30.257,30.257,0,0,0-22.466-4.386.942.942,0,1,0,.352,1.851,28.443,28.443,0,0,1,21.06,4.081l6.338,4.136a8.975,8.975,0,0,0,4.4,1.147H61.07a8.984,8.984,0,0,0,5.367-1.767l11.344-8.448c1.851-1.4,5.552-3.6,9.373-2.6a8.675,8.675,0,0,1,.824.324L68.787,233.193a15.073,15.073,0,0,1-7.717,3.553l-14.259,2.1a.928.928,0,0,0,.139,1.851h.139l14.277-2.11A16.776,16.776,0,0,0,70,234.6l20.264-17.729A.925.925,0,0,0,90.568,216.057Zm-25.233,9.586a7.105,7.105,0,0,1-4.266,1.4H57.054a7.087,7.087,0,0,1-3.387-.879l-1.851-1.184,2.359-.925a15.193,15.193,0,0,1,10-.333l2.72.814Z" transform="translate(0 -207.861)" fill="#5fb2e4" stroke="#5fb2e4" stroke-width="1"/>
      </g>
    </g>
    <g id="Group_90" data-name="Group 90" transform="translate(60.145 109.684)">
      <g id="Group_89" data-name="Group 89" transform="translate(0 0)">
        <path id="Path_82" data-name="Path 82" d="M264.731,151.931a.925.925,0,0,0-.925.925,2.85,2.85,0,0,1-2.878,2.776.925.925,0,0,0,0,1.851,4.71,4.71,0,0,0,4.728-4.626A.925.925,0,0,0,264.731,151.931Z" transform="translate(-260.003 -151.931)" fill="#5fb2e4" stroke="#5fb2e4" stroke-width="1"/>
      </g>
    </g>
    <g id="Group_92" data-name="Group 92" transform="translate(52.742 96.971)">
      <g id="Group_91" data-name="Group 91" transform="translate(0 0)">
        <path id="Path_83" data-name="Path 83" d="M237.2,97.295a.925.925,0,0,0-1.406,0c-.8.925-7.791,9.253-7.791,13.611a8.494,8.494,0,1,0,16.988,0v0C244.991,106.511,238,98.22,237.2,97.295Zm-.7,20.255a6.643,6.643,0,0,1-6.644-6.644c0-2.831,4.293-8.688,6.644-11.566,2.35,2.878,6.644,8.735,6.644,11.566A6.643,6.643,0,0,1,236.5,117.549Z" transform="translate(-228.003 -96.971)" fill="#5fb2e4" stroke="#5fb2e4" stroke-width="1"/>
      </g>
    </g>
  </g>
</svg>
