<svg xmlns="http://www.w3.org/2000/svg" width="17.5" height="17.501" viewBox="0 0 17.5 17.501">
  <g id="phone-call" transform="translate(-0.095 0.251)">
    <g id="Group_7" data-name="Group 7" transform="translate(0.344 0)">
      <path id="Path_11" data-name="Path 11" d="M13.743,36.923a1.67,1.67,0,0,0-1.211-.554,1.727,1.727,0,0,0-1.225.551l-1.132,1.127c-.093-.05-.186-.1-.276-.143-.129-.064-.251-.125-.355-.19A12.294,12.294,0,0,1,6.6,35.031a7.245,7.245,0,0,1-.967-1.524c.294-.268.566-.547.831-.815.1-.1.2-.2.3-.3a1.639,1.639,0,0,0,0-2.475l-.978-.976c-.111-.111-.226-.225-.333-.34-.215-.222-.441-.451-.673-.665a1.7,1.7,0,0,0-1.2-.526,1.755,1.755,0,0,0-1.218.526l-.007.007L1.136,29.166a2.615,2.615,0,0,0-.777,1.663,6.262,6.262,0,0,0,.458,2.654,15.4,15.4,0,0,0,2.74,4.564,16.85,16.85,0,0,0,5.612,4.388,8.753,8.753,0,0,0,3.152.93c.075,0,.154.007.226.007a2.7,2.7,0,0,0,2.066-.887c0-.007.011-.011.014-.018a8.138,8.138,0,0,1,.627-.647c.154-.147.312-.3.466-.461a1.783,1.783,0,0,0,.541-1.237,1.718,1.718,0,0,0-.552-1.227Zm1.282,3.766s0,0,0,0c-.14.15-.283.286-.437.436a9.409,9.409,0,0,0-.691.715,1.728,1.728,0,0,1-1.347.569c-.054,0-.111,0-.165,0a7.775,7.775,0,0,1-2.793-.837,15.906,15.906,0,0,1-5.286-4.134,14.515,14.515,0,0,1-2.579-4.288,5.1,5.1,0,0,1-.4-2.239,1.641,1.641,0,0,1,.494-1.062l1.221-1.22a.815.815,0,0,1,.544-.254.766.766,0,0,1,.523.25l.011.011c.218.2.426.415.645.64.111.114.226.229.34.347l.978.976a.682.682,0,0,1,0,1.109c-.1.1-.2.207-.308.308-.3.308-.587.594-.9.873-.007.007-.014.011-.018.018a.729.729,0,0,0-.186.812l.011.032a7.837,7.837,0,0,0,1.157,1.885l0,0a13.138,13.138,0,0,0,3.18,2.89,4.891,4.891,0,0,0,.441.24c.129.064.251.125.355.19.014.007.029.018.043.025a.777.777,0,0,0,.355.089.766.766,0,0,0,.544-.247L11.984,37.6a.811.811,0,0,1,.541-.268.73.73,0,0,1,.516.261l.007.007,1.973,1.971A.707.707,0,0,1,15.025,40.689Z" transform="translate(-0.344 -26.371)" fill="#00bce4" stroke="#00bce4" stroke-width="0.5"/>
      <path id="Path_12" data-name="Path 12" d="M245.363,86.936a4.86,4.86,0,0,1,3.957,3.957.507.507,0,0,0,.5.423.673.673,0,0,0,.087-.008.51.51,0,0,0,.419-.589,5.876,5.876,0,0,0-4.788-4.788.512.512,0,0,0-.589.415A.5.5,0,0,0,245.363,86.936Z" transform="translate(-236.348 -82.912)" fill="#00bce4" stroke="#00bce4" stroke-width="0.5"/>
      <path id="Path_13" data-name="Path 13" d="M257.252,7.892A9.676,9.676,0,0,0,249.367.008a.509.509,0,1,0-.166,1,8.642,8.642,0,0,1,7.046,7.046.507.507,0,0,0,.5.423.674.674,0,0,0,.087-.008A.5.5,0,0,0,257.252,7.892Z" transform="translate(-240.26 0)" fill="#00bce4" stroke="#00bce4" stroke-width="0.5"/>
    </g>
  </g>
</svg>
