<svg xmlns="http://www.w3.org/2000/svg" width="66.137" height="66.493" viewBox="0 0 66.137 66.493">
  <g id="sore-throat" transform="translate(0 0.356)">
    <path id="Path_92" data-name="Path 92" d="M224.667,43.85a2.211,2.211,0,0,1,4.421,0,.969.969,0,0,0,1.938,0,4.148,4.148,0,0,0-8.3,0,.969.969,0,0,0,1.938,0Z" transform="translate(-193.958 -34.574)" fill="#5fb2e4"/>
    <path id="Path_93" data-name="Path 93" d="M65.717,43.4a12.936,12.936,0,0,0-7.356-2.279H55.981c-2.636,0-5.2-1.434-7.224-4.039a22.178,22.178,0,0,1-3.673-11.144c6.16-5.639,9.28-10.729,9.28-15.162,0-.546-.023-1.094-.067-1.629V9.133c-.125-1.262-.2-4.238-.2-8.165A.969.969,0,0,0,53.127,0H48.882a.969.969,0,1,0,0,1.938H52.16c.014,3.5.088,6.162.207,7.378.04.479.06.971.06,1.461,0,4.578-4.032,10.161-11.986,16.6a11.905,11.905,0,0,1-7.491,2.66H32.9a11.923,11.923,0,0,1-7.506-2.667c-7.949-6.432-11.979-12.013-11.979-16.59,0-.516.02-1,.059-1.44.105-1.069.155-3.025.179-4.477.015-.893.024-1.873.028-2.922C13.622-1.315,11.662-.6,11.742.968c0,1.409-.011,2.707-.03,3.86-.033,2.031-.092,3.524-.171,4.328-.045.5-.067,1.048-.067,1.621,0,4.433,3.12,9.523,9.28,15.161a22.177,22.177,0,0,1-3.673,11.145c-2.023,2.6-4.588,4.039-7.223,4.04H7.7a13.011,13.011,0,0,0-3.842.578l-.027.009A12.937,12.937,0,0,0,.426,43.347a.969.969,0,0,0-.426.8V60.357c0,3.187,1.938,2.118,1.938,0V44.678a11.006,11.006,0,0,1,1.941-.939,40.045,40.045,0,0,0,13.233,8.5,42.953,42.953,0,0,0,35.2-1.618.969.969,0,0,0-.88-1.726,41.016,41.016,0,0,1-33.607,1.543A38.225,38.225,0,0,1,6.107,43.175a11.173,11.173,0,0,1,1.6-.115H9.528A38.235,38.235,0,0,0,32.9,51.031h.02A38.236,38.236,0,0,0,56.311,43.06h2.05a11.177,11.177,0,0,1,1.4.089,37.687,37.687,0,0,1-4.675,3.625.969.969,0,1,0,1.063,1.62A39.534,39.534,0,0,0,62.02,43.68a11,11,0,0,1,2.18,1.043V60.357A3.847,3.847,0,0,1,60.357,64.2c-2.506.179-2.066,1.938,0,1.938a5.787,5.787,0,0,0,5.78-5.78V44.2a.969.969,0,0,0-.42-.8Zm-21.089,3.76a36.33,36.33,0,0,1-11.709,1.932H32.9a36.314,36.314,0,0,1-20.55-6.372,12.145,12.145,0,0,0,6.274-4.467l.023-.031a24.032,24.032,0,0,0,3.917-10.687q.776.662,1.606,1.334a13.86,13.86,0,0,0,8.722,3.1h.062a13.845,13.845,0,0,0,8.707-3.093q.835-.675,1.614-1.341a24.032,24.032,0,0,0,3.917,10.686l.023.031a12.143,12.143,0,0,0,6.275,4.466,36.208,36.208,0,0,1-8.861,4.441Z" transform="translate(0 0)" fill="#5fb2e4"/>
    <path id="Path_94" data-name="Path 94" d="M201.652,118.248A.969.969,0,0,0,202.7,119.7a25.243,25.243,0,0,1,11.4,0,.969.969,0,0,0,1.048-1.448c-1.275-2.091-3.02-4.955-6.748-4.955s-5.472,2.864-6.747,4.955Zm6.747-3.017a4.734,4.734,0,0,1,3.851,2.147,27.14,27.14,0,0,0-7.7,0A4.733,4.733,0,0,1,208.4,115.231Z" transform="translate(-175.48 -98.658)" fill="#5fb2e4"/>
    <path id="Path_95" data-name="Path 95" d="M219.944,271.14h-1.759a3.3,3.3,0,0,0-.248-.6l.847-.847a.969.969,0,0,0-1.37-1.37l-.847.847a3.3,3.3,0,0,0-.6-.247v-1.759a.969.969,0,1,0-1.938,0v1.759a3.3,3.3,0,0,0-.6.248l-2.276-2.276a.969.969,0,0,0-1.37,1.37l2.276,2.276a3.308,3.308,0,0,0-.248.6h-1.759a.969.969,0,1,0,0,1.938h1.759a3.305,3.305,0,0,0,.248.6l-.847.847a.969.969,0,0,0,1.37,1.37l.847-.847a3.312,3.312,0,0,0,.6.248v1.759a.969.969,0,1,0,1.938,0v-1.759a3.308,3.308,0,0,0,.6-.247l2.276,2.276a.969.969,0,1,0,1.37-1.37l-2.276-2.276a3.31,3.31,0,0,0,.248-.6h1.759a.969.969,0,1,0,0-1.938ZM215,273.5a1.389,1.389,0,1,1,1.389-1.389A1.39,1.39,0,0,1,215,273.5Z" transform="translate(-182.084 -231.813)" fill="#5fb2e4"/>
    <path id="Path_96" data-name="Path 96" d="M.538,137.077l5.052,2.5-1.385,1.036a.969.969,0,0,0,.21,1.671l10.5,4.344a.969.969,0,0,0,1.181-1.427l-3.326-5.071,1.361-1.092a.969.969,0,0,0,0-1.508L6.775,131.57a.969.969,0,0,0-1.19-.023l-5.2,3.886a.969.969,0,0,0,.15,1.644Zm5.6-3.526,5.838,4.732-1.111.891a.969.969,0,0,0-.2,1.287l2.085,3.179-6.02-2.491,1.283-.96a.969.969,0,0,0-.15-1.644l-5.052-2.5Z" transform="translate(0 -114.387)" fill="#5fb2e4"/>
    <path id="Path_97" data-name="Path 97" d="M24.808,257.087a.969.969,0,0,0,.773.6l5.119.664a.992.992,0,0,0,.126.008.969.969,0,0,0,.123-1.93l-3.424-.444,1.011-1.28a.969.969,0,0,0-.636-1.561l-5.119-.664a.969.969,0,1,0-.249,1.921l3.424.444-1.011,1.28a.969.969,0,0,0-.137.966Z" transform="translate(-18.886 -219.855)" fill="#5fb2e4"/>
    <path id="Path_98" data-name="Path 98" d="M387.939,138.678a.969.969,0,0,0,.363.753l1.361,1.092-3.326,5.071a.969.969,0,0,0,1.181,1.427l10.5-4.344a.969.969,0,0,0,.21-1.671l-1.385-1.036,5.052-2.5a.969.969,0,0,0,.15-1.644l-5.2-3.886a.969.969,0,0,0-1.19.023l-7.358,5.964A.969.969,0,0,0,387.939,138.678Zm3.623.884-1.11-.891,5.838-4.732,3.33,2.49-5.052,2.5a.969.969,0,0,0-.15,1.644l1.283.96-6.02,2.491,2.085-3.179a.969.969,0,0,0-.2-1.287Z" transform="translate(-336.294 -114.725)" fill="#5fb2e4"/>
    <path id="Path_99" data-name="Path 99" d="M422.179,253.7a.969.969,0,0,0-1.085-.836l-5.119.664a.969.969,0,0,0-.636,1.561l1.011,1.28-3.424.444a.969.969,0,0,0,.123,1.93.993.993,0,0,0,.126-.008l5.119-.664a.969.969,0,0,0,.636-1.561l-1.011-1.28,3.424-.444A.969.969,0,0,0,422.179,253.7Z" transform="translate(-358.852 -220.191)" fill="#5fb2e4"/>
    <ellipse id="Ellipse_3" data-name="Ellipse 3" cx="0.968" cy="0.969" rx="0.968" ry="0.969" transform="translate(23.474 43.609)" fill="#5fb2e4"/>
    <ellipse id="Ellipse_4" data-name="Ellipse 4" cx="0.968" cy="0.969" rx="0.968" ry="0.969" transform="translate(22.974 37.37)" fill="#5fb2e4"/>
    <ellipse id="Ellipse_5" data-name="Ellipse 5" cx="0.968" cy="0.969" rx="0.968" ry="0.969" transform="translate(39.897 32.462)" fill="#5fb2e4"/>
    <ellipse id="Ellipse_6" data-name="Ellipse 6" cx="0.968" cy="0.969" rx="0.968" ry="0.969" transform="translate(40.672 41.117)" fill="#5fb2e4"/>
  </g>
</svg>
